# xmcd
#
# Track frame offsets:
#	150
#	23785
#	54575
#	94049
#	116650
#	157940
#	184252
#	218091
#
# Disc length: 3486 seconds
#
# Revision: 0
# Processed by: cddbd v1.5.2PL0 Copyright (c) Steve Scherf et al.
# Submitted via: EasyCDDAExtractor 9.0.0.1
#
DISCID=630d9c08
DTITLE=Iron Maiden - Allstate Arena Rosemont Chicago 18-10-06 Disc 1
DYEAR=2006
DGENRE=Hard Rock
TTITLE0=Different World
TTITLE1=These Colors Don't Run
TTITLE2=Brighter Than A Thousand Suns
TTITLE3=The Pilgrim
TTITLE4=The Longest Day
TTITLE5=Out Of The Shadows
TTITLE6=The Reincarnation of Benjamin Breeg
TTITLE7=For The Greater Good Of God
EXTD=
EXTT0=
EXTT1=
EXTT2=
EXTT3=
EXTT4=
EXTT5=
EXTT6=
EXTT7=
PLAYORDER=
